<svg xmlns="http://www.w3.org/2000/svg" viewBox="0, 0, 141.617, 100"><path d="M34.953 94.318c5.316 3.792 11.541 5.612 19.443 5.679 5.058.046 9.072-.44 15.066-1.757 12.935-2.866 22.048-6.4 28.374-11.015 7.471-5.416 10.619-12.081 9.467-19.973-1.057-7.305-4.63-13.234-10.17-16.844-1.294-.824-2.429-1.491-2.519-1.491-.339-.019-1.194 2.9-1.866 6.135-.302 1.673-.892 3.823-1.268 4.752-.596 1.563-.595 1.744.111 2.437 2.277 2.238 3.108 6.904 1.898 10.55-1.87 5.683-7.229 9.906-15.718 12.441-4.234 1.256-17.219 3.446-21.665 3.642-7.696.36-13.088-1.805-16.561-6.561l-1.302-1.818-3.351-1.054c-3.034-.967-4.825-1.878-9.344-4.841-.863-.58-1.018-.24-.862 2.107.368 6.002 4.861 13.73 10.267 17.611zm-7.218-20.076c6.75 5.157 13.325 5.71 20.063 1.722 4.538-2.658 6.907-5.388 8.294-9.531.769-2.377.896-5.968.213-6.64-.615-.604-6.9 1.054-9.258 2.451-1.101.619-1.235.801-1.339 1.773-.147 1.333-1.355 2.563-3.536 3.553-2.092.989-5.208.925-7.791-.136-1.609-.686-2.199-1.132-5.456-4.332-3.37-3.313-3.781-3.851-5.842-7.265-4.009-6.58-7.788-15.442-8.804-20.694-.567-2.795-.484-6.295.177-8.107.573-1.585 2.072-3.246 4.271-4.755 1.931-1.281 2.353-2.03 2.447-4.266.095-2.01-.684-5.954-1.276-6.536-.478-.47-3.516.753-6.255 2.492-2.245 1.42-5.311 4.54-6.512 6.627-5.027 8.758-2.521 21.696 7.305 37.888 3.665 6.064 9.276 12.698 13.299 15.756zm6.38-8.905c2.746 1.714 2.905 1.736 3.752.554.87-1.204 3.677-3.057 6.443-4.278 6.972-3.085 20.072-5.073 29.582-4.456 2.937.201 3.501.128 3.902-.463.646-.931 3.837-10.509 3.586-10.755-.113-.112-2.597-.09-5.553.049-17.942.719-31.015 3.226-39.58 7.568-2.247 1.148-3.234 1.834-4.869 3.451-1.119 1.139-2.237 2.367-2.481 2.844-.445.771-.399.816 1.354 2.494.956.94 2.706 2.302 3.864 2.992zm-30.15-40.061c.089-.226.618-1.631 1.193-3.126.684-1.789 1.461-3.263 2.288-4.242.938-1.137 1.271-1.794 1.286-2.629.125-3.907 4.227-7.262 8.071-6.618 7.258 1.269 9.322 10.191 3.213 13.857-3.346 1.993-5.173 4.809-5.014 7.607.054.947.197 1.804.311 1.916.387.381 4.627-.063 6.383-.665 3.332-1.113 6.628-3.692 8.409-6.598 2.271-3.722 2.745-8.896 1.217-13.263-1.921-5.47-5.679-9.162-11.135-10.898-2.513-.814-6.893-.821-9.369-.032-7.566 2.369-12.038 9.926-10.525 17.769.638 3.314 3.209 8.123 3.672 6.922zm41.603 22.622c3.47-.752 5.856-1.631 5.851-2.128.022-.113-1.129-2.631-2.486-5.577-2.831-6.139-6.823-13.51-9.34-17.326-2.196-3.367-5.615-7.04-6.085-6.562-.112.114-.393 1.494-.605 3.076-.212 1.582-.781 3.709-1.246 4.729-1.552 3.265-1.552 3.22-.016 5.938.779 1.348 3.235 5.955 5.485 10.225 2.204 4.27 4.2 7.933 4.382 8.112.182.179 2.009-.04 4.06-.487zm39.394 30.927c.886.557 1.725 1.024 1.883 1 1.016.014 4.652-5.007 5.578-7.634.396-1.178.396-1.178-.9-2.183-1.795-1.361-2.644-2.957-2.822-5.236-.18-2.504.278-4.382 3.378-13.914 3.716-11.433 5.935-15.923 9.695-19.748 3.894-3.962 9.097-5.43 13.761-3.89 2.513.859 4.059 2.019 5.25 3.995 1.374 2.291 1.805 5.132 1.388 9.11-.106.791.078 1.15 1.171 2.179 1.889 1.813 4.128 2.267 6.74 1.387 2.048-.718 2.966-1.606 3.403-3.281.895-3.552-.129-9.617-2.262-13.459-1.422-2.561-5.178-6.073-8.285-7.739-4.65-2.511-9.809-3.776-14.435-3.578-3.453.143-5.683.817-8.535 2.535-5.502 3.322-9.2 9.089-14.099 22.135-1.258 3.33-2.782 7.159-3.403 8.519-6.557 14.506-5.701 24.613 2.494 29.802zm19.393 7.734c5.142-.632 9.007-2.743 12.584-6.792 3.644-4.164 6.089-8.565 9.559-17.197 1.105-2.764 2.144-5.324 2.321-5.732.376-.883.059-1.016-3.578-1.233-2.033-.118-5.041-.746-5.926-1.213-.045-.045-.775 1.745-1.636 3.988-3.047 7.838-6.05 12.989-7.742 13.162-.496.049-.696.435-1.086 2.38-.628 3.098-1.446 5.069-2.874 7.069-1.226 1.749-3.058 4.022-3.885 4.91-.784.797-.218.95 2.263.658zm12.877-35.423c2.841 2.121 6.326 3.039 10.976 2.953 3.566-.076 5.683-.772 8.712-2.852 2.783-1.921 3.855-3.33 4.442-5.886.85-3.507-.42-6.77-3.904-10.194-.91-.85-1.956-1.699-2.342-1.899-.657-.287-.678-.129-.184 2.237.659 3.02.361 5.054-.954 7.075-1.248 1.907-2.73 2.823-5.075 3.16-2.503.36-4.902-.296-6.653-1.794-1.388-1.184-1.434-1.274-1.355-2.584.226-2.599.184-7.43-.044-7.654-.432-.425-3.695.845-5.018 1.918-4.908 4.084-4.259 11.303 1.399 15.52z"/></svg>